HIERARCHY
ROOT Hips
{
	OFFSET 0.000000 0.000000 0.000000
	CHANNELS 6 Xposition Yposition Zposition Zrotation Yrotation Xrotation 
	JOINT LowerBack
	{
		OFFSET 0.000000 0.000000 0.000000
		CHANNELS 3 Zrotation Yrotation Xrotation
		JOINT Spine
		{
			OFFSET 0.028270 2.035590 -0.193380
			CHANNELS 3 Zrotation Yrotation Xrotation
			JOINT Spine1
			{
				OFFSET 0.056720 2.048850 -0.042750
				CHANNELS 3 Zrotation Yrotation Xrotation
				JOINT Neck
				{
					OFFSET 0.000000 0.000000 0.000000
					CHANNELS 3 Zrotation Yrotation Xrotation
					JOINT Neck1
					{
						OFFSET -0.054170 1.746240 0.172020
						CHANNELS 3 Zrotation Yrotation Xrotation
						JOINT Head
						{
							OFFSET 0.104070 1.761360 -0.123970
							CHANNELS 3 Zrotation Yrotation Xrotation
							End Site
							{
								OFFSET 0.000000 0.000000 0.000000
							}
						}
					}
				}
				JOINT LeftShoulder
				{
					OFFSET 0.000000 0.000000 0.000000
					CHANNELS 3 Zrotation Yrotation Xrotation
					JOINT LeftArm
					{
						OFFSET 3.362410 1.200890 -0.311210
						CHANNELS 3 Zrotation Yrotation Xrotation
						JOINT LeftForeArm
						{
							OFFSET 4.983000 -0.000000 -0.000000
							CHANNELS 3 Zrotation Yrotation Xrotation
							JOINT LeftHand
							{
								OFFSET 3.483560 -0.000000 -0.000000
								CHANNELS 3 Zrotation Yrotation Xrotation
								JOINT LeftFingerBase
								{
									OFFSET 0.000000 0.000000 0.000000
									CHANNELS 3 Zrotation Yrotation Xrotation
									JOINT LeftHandIndex1
									{
										OFFSET 0.715260 -0.000000 -0.000000
										CHANNELS 3 Zrotation Yrotation Xrotation
										End Site
										{
											OFFSET 0.000000 0.000000 0.000000
										}
									}
								}
								JOINT LThumb
								{
									OFFSET 0.000000 0.000000 0.000000
									CHANNELS 3 Zrotation Yrotation Xrotation
									End Site
									{
										OFFSET 0.000000 0.000000 0.000000
									}
								}
							}
						}
					}
				}
				JOINT RightShoulder
				{
					OFFSET 0.000000 0.000000 0.000000
					CHANNELS 3 Zrotation Yrotation Xrotation
					JOINT RightArm
					{
						OFFSET -3.136600 1.374050 -0.404650
						CHANNELS 3 Zrotation Yrotation Xrotation
						JOINT RightForeArm
						{
							OFFSET -5.241900 -0.000000 -0.000000
							CHANNELS 3 Zrotation Yrotation Xrotation
							JOINT RightHand
							{
								OFFSET -3.444170 -0.000000 -0.000000
								CHANNELS 3 Zrotation Yrotation Xrotation
								JOINT RightFingerBase
								{
									OFFSET 0.000000 0.000000 0.000000
									CHANNELS 3 Zrotation Yrotation Xrotation
									JOINT RightHandIndex1
									{
										OFFSET -0.622530 -0.000000 -0.000000
										CHANNELS 3 Zrotation Yrotation Xrotation
										End Site
										{
											OFFSET 0.000000 0.000000 0.000000
										}
									}
								}
								JOINT RThumb
								{
									OFFSET 0.000000 0.000000 0.000000
									CHANNELS 3 Zrotation Yrotation Xrotation
									End Site
									{
										OFFSET 0.000000 0.000000 0.000000
									}
								}
							}
						}
					}
				}
			}
		}
	}
}
}
MOTION
Frames: 12
Frame Time: 0.008333
-0.304682 17.047730 0.480605 -113.280863 83.445994 -93.167280 0.042836 0.080843 -2.895749 -0.602427 -0.012951 -3.340688 -5.097901 -0.031037 0.929203 7.702756 -10.013794 -6.149124 -1.634249 -0.145321 0.407041 0.000000 0.000000 0.000000 4.187080 13.068184 0.300242 -63.769732 14.778624 28.672881 -0.462381 -80.511732 -0.010299 4.574584 0.408495 0.011865 -0.115051 0.160478 0.000000 0.000000 0.000000 0.000000 0.000000 0.000000 0.000000 4.223191 -4.628087 -0.132538 56.056525 23.378456 31.160668 179.864194 89.761089 -179.986077 2.603647 0.275239 0.013228 -0.000280 -0.278862 -0.000000 0.000000 0.000000 0.000000 0.000000 0.000000 0.000000 
-0.086460 16.971793 0.448824 -112.156446 83.069961 -92.396761 0.007399 0.029938 -3.033927 -0.619977 -0.065998 -3.357719 -5.137668 -0.081044 0.946758 8.266100 -10.027576 -5.978703 -1.573343 -0.143653 0.456912 0.000000 0.000000 0.000000 4.312921 13.139550 0.215989 -63.655213 15.599411 28.575118 -0.446471 -80.870171 -0.009719 4.429254 0.373598 0.010127 -0.109978 0.158585 0.000000 0.000000 0.000000 0.000000 0.000000 0.000000 0.000000 4.391349 -4.676665 -0.170855 55.716148 23.962762 31.120018 179.809540 88.808442 -179.985080 2.709806 0.578540 0.021216 -0.003674 -0.290362 -0.000000 0.000000 0.000000 0.000000 0.000000 0.000000 0.000000 
0.130219 16.898816 0.416946 -111.594696 82.796856 -92.161836 -0.112741 -0.047775 -3.167196 -0.654523 -0.139310 -3.372660 -5.182013 -0.151505 0.967258 8.827922 -10.024255 -5.806969 -1.516614 -0.142197 0.505340 0.000000 0.000000 0.000000 4.348781 13.225099 0.144849 -63.488266 16.252713 28.477476 -0.436590 -81.128215 -0.009285 4.328252 0.346701 0.009000 -0.106275 0.156790 0.000000 0.000000 0.000000 0.000000 0.000000 0.000000 0.000000 4.568922 -4.720231 -0.219936 55.508452 24.515364 31.023278 179.759079 87.950874 -179.983886 2.847996 0.924465 0.031198 -0.007924 -0.302940 -0.000000 0.000000 0.000000 0.000000 0.000000 0.000000 0.000000 
0.344319 16.829961 0.384380 -111.441416 82.625488 -92.321195 -0.303808 -0.143224 -3.272343 -0.702716 -0.224055 -3.381983 -5.228852 -0.233572 0.987181 9.366811 -10.006793 -5.638497 -1.462421 -0.140754 0.551012 0.000000 0.000000 0.000000 4.286575 13.325149 0.091099 -63.276020 16.698220 28.392428 -0.433418 -81.256379 -0.009039 4.288115 0.333559 0.008385 -0.104312 0.155049 0.000000 0.000000 0.000000 0.000000 0.000000 0.000000 0.000000 4.725517 -4.755448 -0.283163 55.458387 25.003410 30.863204 179.713823 87.193057 -179.982586 3.000752 1.299918 0.043074 -0.012794 -0.316392 -0.000000 0.000000 0.000000 0.000000 0.000000 0.000000 0.000000 
0.555048 16.766414 0.350536 -111.557589 82.551974 -92.741469 -0.551584 -0.245361 -3.335511 -0.761573 -0.309899 -3.383850 -5.277003 -0.316894 1.003711 9.864385 -9.979415 -5.478460 -1.409643 -0.139174 0.592633 0.000000 0.000000 0.000000 4.127345 13.439522 0.058425 -63.030780 16.899300 28.332045 -0.437676 -81.225568 -0.009008 4.321069 0.339503 0.008784 -0.104359 0.153292 0.000000 0.000000 0.000000 0.000000 0.000000 0.000000 0.000000 4.837015 -4.779704 -0.363272 55.583416 25.393708 30.636266 179.674895 86.535419 -179.981315 3.144295 1.689072 0.056349 -0.017866 -0.330446 -0.000000 0.000000 0.000000 0.000000 0.000000 0.000000 0.000000 
0.761825 16.709416 0.314815 -111.823228 82.567840 -93.299297 -0.838672 -0.343020 -3.355069 -0.827889 -0.387098 -3.379121 -5.326578 -0.391721 1.012927 10.305971 -9.950093 -5.331060 -1.358555 -0.137441 0.629424 0.000000 0.000000 0.000000 3.870096 13.553893 0.047747 -62.761753 16.848077 28.294902 -0.449441 -81.026870 -0.009201 4.431590 0.370907 0.010298 -0.106440 0.151394 0.000000 0.000000 0.000000 0.000000 0.000000 0.000000 0.000000 4.891016 -4.794872 -0.459347 55.886005 25.663406 30.348879 179.643300 85.977294 -179.980242 3.247462 2.077312 0.069728 -0.022410 -0.344816 -0.000000 0.000000 0.000000 0.000000 0.000000 0.000000 0.000000 
0.964444 16.660037 0.276719 -112.128718 82.664213 -93.877980 -1.150184 -0.425719 -3.336464 -0.899163 -0.446598 -3.369406 -5.377785 -0.448984 1.013934 10.681693 -9.920067 -5.200901 -1.309388 -0.135533 0.660540 0.000000 0.000000 0.000000 3.532791 13.668802 0.060529 -62.490577 16.524630 28.291816 -0.469394 -80.639545 -0.009621 4.620683 0.429244 0.013223 -0.110553 0.149325 0.000000 0.000000 0.000000 0.000000 0.000000 0.000000 0.000000 4.879773 -4.797152 -0.572202 56.361751 25.785509 30.004804 179.620069 85.512041 -179.979544 3.281041 2.452294 0.081713 -0.025845 -0.359244 -0.000000 0.000000 0.000000 0.000000 0.000000 0.000000 0.000000 
1.162954 16.619113 0.235508 -112.360976 82.823678 -94.355830 -1.462992 -0.484641 -3.290503 -0.971172 -0.481705 -3.357613 -5.430992 -0.481973 1.004652 10.984099 -9.892882 -5.090549 -1.263214 -0.133524 0.685818 0.000000 0.000000 0.000000 3.127263 13.772276 0.094834 -62.234636 15.942172 28.321090 -0.497326 -80.069023 -0.010253 4.881606 0.516086 0.017760 -0.116439 0.147057 0.000000 0.000000 0.000000 0.000000 0.000000 0.000000 0.000000 4.803111 -4.786862 -0.698900 56.988947 25.748744 29.616187 179.605916 85.133324 -179.979410 3.214455 2.806727 0.090511 -0.027461 -0.373517 -0.000000 0.000000 0.000000 0.000000 0.000000 0.000000 0.000000 
1.357632 16.587091 0.190384 -112.395458 83.023845 -94.602584 -1.750381 -0.513017 -3.228312 -1.038760 -0.487944 -3.346384 -5.485953 -0.486193 0.984097 11.208454 -9.868968 -5.001184 -1.221136 -0.131507 0.705449 0.000000 0.000000 0.000000 2.669674 13.856146 0.147265 -62.014918 15.123894 28.381523 -0.532705 -79.329940 -0.011081 5.203421 0.629989 0.024305 -0.123737 0.144643 0.000000 0.000000 0.000000 0.000000 0.000000 0.000000 0.000000 4.664174 -4.762931 -0.835739 57.735874 25.550067 29.197329 179.601276 84.833694 -179.980008 3.024426 3.138476 0.094527 -0.026745 -0.387469 -0.000000 0.000000 0.000000 0.000000 0.000000 0.000000 0.000000 
1.548927 16.564011 0.140490 -112.100853 83.238914 -94.485482 -1.984308 -0.506851 -3.159494 -1.096216 -0.463586 -3.337797 -5.541683 -0.459906 0.951813 11.352666 -9.846631 -4.932287 -1.184239 -0.129592 0.720020 0.000000 0.000000 0.000000 2.177429 13.913044 0.212990 -61.852251 14.105844 28.471440 -0.574421 -78.450041 -0.012079 5.570889 0.766886 0.032854 -0.131987 0.142217 0.000000 0.000000 0.000000 0.000000 0.000000 0.000000 0.000000 4.469148 -4.723806 -0.977837 58.562340 25.197296 28.764446 179.606221 84.607128 -179.981464 2.697445 3.450955 0.092059 -0.023416 -0.400984 -0.000000 0.000000 0.000000 0.000000 0.000000 0.000000 0.000000 
1.737426 16.549532 0.085054 -111.362773 83.442944 -93.891572 -2.139942 -0.465227 -3.091715 -1.138180 -0.409652 -3.333182 -5.596366 -0.404153 0.908202 11.417890 -9.823363 -4.881953 -1.153483 -0.127891 0.730382 0.000000 0.000000 0.000000 1.668094 13.937015 0.286148 -61.765043 12.933659 28.587733 -0.620694 -77.469441 -0.013220 5.966699 0.920283 0.043404 -0.140700 0.139984 0.000000 0.000000 0.000000 0.000000 0.000000 0.000000 0.000000 4.227440 -4.668634 -1.119291 59.423125 24.707825 28.335965 179.620247 84.449110 -179.983832 2.233918 3.750879 0.082509 -0.017478 -0.413947 -0.000000 0.000000 0.000000 0.000000 0.000000 0.000000 0.000000 
1.923764 16.543021 0.023386 -110.150501 83.609102 -92.792452 -2.197165 -0.392052 -3.031979 -1.159745 -0.331587 -3.332821 -5.646801 -0.324417 0.856306 11.409799 -9.805335 -4.848578 -1.130139 -0.126527 0.737205 0.000000 0.000000 0.000000 1.161517 13.918879 0.359197 -61.775070 11.664849 28.718552 -0.669099 -76.438159 -0.014459 6.367557 1.078686 0.055350 -0.149268 0.138249 0.000000 0.000000 0.000000 0.000000 0.000000 0.000000 0.000000 3.957954 -4.608454 -1.251964 60.264391 24.124325 27.942809 179.642129 84.361291 -179.987114 1.639494 4.047694 0.065079 -0.008887 -0.426217 -0.000000 0.000000 0.000000 0.000000 0.000000 0.000000 0.000000 
